<svg width="24" height="18" viewBox="0 0 24 18" fill="none" xmlns="http://www.w3.org/2000/svg">
<path d="M23.932 2.58048C23.8722 2.45504 23.7761 2.34873 23.6552 2.27419C23.5343 2.19964 23.3937 2.16001 23.25 2.16C19.6738 2.16 17.0545 2.79986 15 4.20754V0H13.5V2.16H10.5V0H9.00003V4.20754C6.94563 2.79986 4.32634 2.16 0.750047 2.16C0.606313 2.15999 0.465602 2.19963 0.344667 2.27421C0.223731 2.34878 0.127664 2.45514 0.067902 2.58064C0.00813969 2.70613 -0.0128008 2.84547 0.00757336 2.98206C0.0279475 3.11865 0.088778 3.24675 0.182824 3.3511C1.4591 4.76791 2.25004 6.26695 2.25004 9.36C2.25004 9.55096 2.32906 9.73409 2.46971 9.86912C2.61036 10.0041 2.80113 10.08 3.00004 10.08C5.07589 10.08 7.50003 11.0232 7.50003 13.68C7.50071 13.8626 7.57331 14.0381 7.70327 14.1714C7.83322 14.3047 8.01089 14.3859 8.2006 14.3986C8.51253 14.4197 11.25 14.6788 11.25 17.28C11.25 17.471 11.329 17.6541 11.4697 17.7891C11.6103 17.9241 11.8011 18 12 18C12.1989 18 12.3897 17.9241 12.5303 17.7891C12.671 17.6541 12.75 17.471 12.75 17.28C12.75 14.6788 15.4875 14.4197 15.7967 14.3986C15.9871 14.3872 16.1659 14.3065 16.2966 14.173C16.4272 14.0395 16.5 13.8632 16.5 13.68C16.5 11.0232 18.9241 10.08 21 10.08C21.1989 10.08 21.3897 10.0041 21.5303 9.86912C21.671 9.73409 21.75 9.55096 21.75 9.36C21.75 6.26695 22.541 4.76791 23.8173 3.3511C23.9113 3.24671 23.9721 3.11857 23.9925 2.98195C24.0128 2.84533 23.9918 2.70597 23.932 2.58048V2.58048ZM20.2622 8.67168C17.723 8.89351 15.3472 10.2766 15.0347 13.0483C13.8255 13.2597 12.7427 13.8986 12 14.8388C11.2573 13.8987 10.1746 13.26 8.96545 13.0486C8.65285 10.2766 6.27708 8.8938 3.73796 8.67197C3.75091 6.89938 3.24727 5.15864 2.28394 3.64637C5.38279 3.8425 7.55846 4.67431 9.21993 6.26897C9.32482 6.36958 9.45842 6.43808 9.60385 6.46582C9.74928 6.49357 9.90002 6.4793 10.037 6.42484C10.174 6.37037 10.2911 6.27814 10.3735 6.15981C10.4559 6.04147 10.4999 5.90234 10.5 5.76V3.6H13.5V5.76C13.5 5.90238 13.5441 6.04155 13.6265 6.15993C13.7089 6.27831 13.826 6.37057 13.963 6.42505C14.1 6.47953 14.2508 6.49379 14.3963 6.46602C14.5418 6.43825 14.6754 6.3697 14.7803 6.26904C16.4417 4.67438 18.6174 3.84264 21.7162 3.64644C20.7529 5.15869 20.2493 6.89941 20.2622 8.67197V8.67168Z" fill="#000"/>
</svg>
