<svg width="20" height="20" viewBox="0 0 20 20" fill="none" xmlns="http://www.w3.org/2000/svg">
<g clip-path="url(#clip0_285_2)">
<path d="M15.625 18.75C14.8833 18.75 14.1583 18.5301 13.5416 18.118C12.9249 17.706 12.4443 17.1203 12.1605 16.4351C11.8766 15.7498 11.8024 14.9958 11.9471 14.2684C12.0918 13.541 12.4489 12.8728 12.9734 12.3484C13.4978 11.8239 14.166 11.4668 14.8934 11.3221C15.6208 11.1774 16.3748 11.2516 17.0601 11.5355C17.7453 11.8193 18.331 12.2999 18.743 12.9166C19.1551 13.5333 19.375 14.2583 19.375 15C19.3739 15.9942 18.9784 16.9474 18.2754 17.6504C17.5724 18.3534 16.6192 18.7489 15.625 18.75ZM15.625 12.5C15.1305 12.5 14.6472 12.6466 14.2361 12.9213C13.825 13.196 13.5045 13.5865 13.3153 14.0433C13.1261 14.5001 13.0766 15.0028 13.173 15.4877C13.2695 15.9727 13.5076 16.4181 13.8572 16.7678C14.2069 17.1174 14.6523 17.3555 15.1373 17.452C15.6222 17.5484 16.1249 17.4989 16.5817 17.3097C17.0385 17.1205 17.429 16.8 17.7037 16.3889C17.9784 15.9778 18.125 15.4945 18.125 15C18.1243 14.3372 17.8606 13.7017 17.3919 13.2331C16.9233 12.7644 16.2878 12.5007 15.625 12.5Z" fill="black"/>
<path d="M4.375 18.75C3.63332 18.75 2.9083 18.5301 2.29161 18.118C1.67493 17.706 1.19428 17.1203 0.910453 16.4351C0.626625 15.7498 0.552362 14.9958 0.697057 14.2684C0.841751 13.541 1.1989 12.8728 1.72335 12.3484C2.2478 11.8239 2.91598 11.4668 3.64341 11.3221C4.37084 11.1774 5.12484 11.2516 5.81006 11.5355C6.49529 11.8193 7.08096 12.2999 7.49301 12.9166C7.90507 13.5333 8.125 14.2583 8.125 15C8.12386 15.9942 7.72841 16.9474 7.02539 17.6504C6.32238 18.3534 5.36921 18.7489 4.375 18.75V18.75ZM4.375 12.5C3.88055 12.5 3.3972 12.6466 2.98608 12.9213C2.57495 13.196 2.25452 13.5865 2.0653 14.0433C1.87608 14.5001 1.82658 15.0028 1.92304 15.4877C2.0195 15.9727 2.2576 16.4181 2.60723 16.7678C2.95687 17.1174 3.40232 17.3555 3.88728 17.452C4.37223 17.5484 4.8749 17.4989 5.33171 17.3097C5.78853 17.1205 6.17897 16.8 6.45368 16.3889C6.72838 15.9778 6.875 15.4945 6.875 15C6.87426 14.3372 6.61063 13.7017 6.14195 13.2331C5.67327 12.7644 5.03781 12.5007 4.375 12.5V12.5Z" fill="black"/>
<path d="M10.625 16.875H9.37502V12.7587L5.99058 9.37499C5.75647 9.1403 5.625 8.82235 5.625 8.49086C5.625 8.15938 5.75647 7.84142 5.99058 7.60674L8.85677 4.74055C9.09139 4.50646 9.40928 4.375 9.74071 4.375C10.0721 4.375 10.39 4.50646 10.6246 4.74055L13.3838 7.49999H16.875V8.74955L12.8658 8.74999L9.74083 5.62499L6.87502 8.49055L10.625 12.2406V16.875Z" fill="black"/>
<path d="M13.4375 5C13.0049 5 12.5819 4.87171 12.2222 4.63134C11.8625 4.39098 11.5821 4.04933 11.4165 3.64962C11.2509 3.24991 11.2076 2.81007 11.292 2.38574C11.3764 1.96141 11.5848 1.57163 11.8907 1.2657C12.1966 0.959777 12.5864 0.751438 13.0107 0.667033C13.4351 0.582628 13.8749 0.625948 14.2746 0.791514C14.6743 0.957081 15.016 1.23746 15.2563 1.59719C15.4967 1.95692 15.625 2.37985 15.625 2.8125C15.6243 3.39245 15.3936 3.94844 14.9835 4.35853C14.5734 4.76862 14.0174 4.99931 13.4375 5V5ZM13.4375 1.875C13.2521 1.875 13.0708 1.92998 12.9167 2.033C12.7625 2.13601 12.6423 2.28243 12.5714 2.45374C12.5004 2.62504 12.4818 2.81354 12.518 2.9954C12.5542 3.17726 12.6435 3.3443 12.7746 3.47541C12.9057 3.60653 13.0727 3.69581 13.2546 3.73199C13.4365 3.76816 13.625 3.7496 13.7963 3.67864C13.9676 3.60768 14.114 3.48752 14.217 3.33335C14.32 3.17918 14.375 2.99792 14.375 2.8125C14.3747 2.56395 14.2759 2.32565 14.1001 2.1499C13.9243 1.97414 13.6861 1.87528 13.4375 1.875V1.875Z" fill="black"/>
</g>
<defs>
<clipPath id="clip0_285_2">
<rect width="20" height="20" fill="white"/>
</clipPath>
</defs>
</svg>
