<svg width="25" height="17" viewBox="0 0 25 17" fill="none" xmlns="http://www.w3.org/2000/svg">
<path d="M20.5 8C20.4341 8 20.3702 8.00697 20.305 8.0099L19.1776 2.75H22V1.25H18.25C18.1381 1.24997 18.0276 1.27496 17.9267 1.32316C17.8257 1.37136 17.7368 1.44153 17.6665 1.52855C17.5962 1.61556 17.5462 1.7172 17.5202 1.82603C17.4943 1.93486 17.493 2.04811 17.5165 2.1575L17.965 4.25H10.2904L9.5404 2H11.5V0.5H6.25V2H7.96L8.74083 4.34225L6.81333 8.19665C5.93857 7.92874 5.00293 7.93382 4.13113 8.21121C3.25932 8.4886 2.49278 9.02513 1.93368 9.74927C1.37457 10.4734 1.04946 11.3508 1.00169 12.2644C0.953912 13.178 1.18574 14.0845 1.66627 14.863C2.14681 15.6415 2.85321 16.255 3.69132 16.6218C4.52944 16.9887 5.45945 17.0913 6.35738 16.9161C7.25531 16.7409 8.07851 16.2961 8.71724 15.6411C9.35597 14.9862 9.7799 14.152 9.9325 13.25H11.89C12.115 13.2505 12.3372 13.2002 12.54 13.1028C12.7428 13.0054 12.921 12.8634 13.0612 12.6875L18.355 6.06935L18.8377 8.32228C17.8002 8.738 16.955 9.5256 16.4671 10.5312C15.9793 11.5368 15.8838 12.6882 16.1995 13.7604C16.5151 14.8325 17.2192 15.7485 18.1741 16.3294C19.129 16.9103 20.2661 17.1143 21.3634 16.9015C22.4606 16.6888 23.4392 16.0746 24.1078 15.179C24.7765 14.2834 25.0872 13.1707 24.9793 12.0582C24.8714 10.9457 24.3526 9.91343 23.5243 9.163C22.696 8.41257 21.6177 7.9979 20.5 8V8ZM5.5 15.5C5.07873 15.5012 4.66194 15.4136 4.27676 15.243C3.89159 15.0723 3.54667 14.8225 3.26445 14.5097C2.98224 14.197 2.76906 13.8283 2.63879 13.4276C2.50853 13.027 2.46411 12.6035 2.50841 12.1845C2.55271 11.7656 2.68475 11.3607 2.89593 10.9962C3.1071 10.6316 3.39268 10.3157 3.73408 10.0689C4.07547 9.82204 4.46502 9.64988 4.87736 9.5636C5.2897 9.47732 5.71559 9.47886 6.1273 9.5681L4.82913 12.1645L4.83588 12.1678C4.78154 12.2703 4.75212 12.3841 4.75 12.5C4.74885 12.6688 4.80506 12.833 4.90943 12.9656C5.0138 13.0983 5.16014 13.1916 5.32447 13.2302C5.48879 13.2688 5.66136 13.2504 5.81389 13.1781C5.96641 13.1058 6.08985 12.9838 6.16398 12.8322L6.17088 12.8355L7.46365 10.25C7.92612 10.6489 8.25525 11.1799 8.40669 11.7715C8.55814 12.3632 8.52463 12.987 8.31068 13.559C8.09673 14.1311 7.71261 14.6238 7.21007 14.9708C6.70754 15.3178 6.11072 15.5025 5.5 15.5V15.5ZM9.9325 11.75C9.73615 10.5958 9.09763 9.56367 8.15253 8.8727L9.41155 6.35465L11.2098 11.75H9.9325ZM12.5258 10.955L10.7905 5.75H16.6895L12.5258 10.955ZM20.5 15.5C19.8248 15.502 19.1687 15.2754 18.6386 14.8572C18.1085 14.439 17.7355 13.8537 17.5802 13.1965C17.425 12.5394 17.4967 11.849 17.7836 11.2378C18.0705 10.6266 18.5558 10.1304 19.1606 9.83L19.7665 12.6575L19.7815 12.6542C19.8145 12.821 19.904 12.9713 20.0349 13.0798C20.1657 13.1883 20.33 13.2484 20.5 13.25C20.6989 13.25 20.8897 13.171 21.0303 13.0303C21.171 12.8897 21.25 12.6989 21.25 12.5C21.2454 12.4476 21.2349 12.3959 21.2189 12.3458L21.2339 12.3425L20.6274 9.51282C21.411 9.54466 22.1509 9.88261 22.688 10.4541C23.2251 11.0255 23.5167 11.7848 23.5 12.5689C23.4833 13.353 23.1597 14.0992 22.5988 14.6473C22.0378 15.1954 21.2842 15.5015 20.5 15.5V15.5Z" fill="black"/>
</svg>
