<svg width="60" height="37" viewBox="0 0 60 37" fill="none" xmlns="http://www.w3.org/2000/svg">
<path d="M55.7143 0H4.28571C3.14947 0.00112616 2.06014 0.391308 1.2567 1.08495C0.453252 1.77859 0.00130443 2.71904 0 3.7V33.3C0.00130443 34.281 0.453252 35.2214 1.2567 35.9151C2.06014 36.6087 3.14947 36.9989 4.28571 37H55.7143C56.8505 36.9989 57.9399 36.6087 58.7433 35.9151C59.5467 35.2214 59.9987 34.281 60 33.3V3.7C59.9987 2.71904 59.5467 1.77859 58.7433 1.08495C57.9399 0.391308 56.8505 0.00112616 55.7143 0V0ZM38.5714 33.3H21.4286V29.6C21.4286 29.1093 21.6543 28.6388 22.0562 28.2919C22.4581 27.9449 23.0031 27.75 23.5714 27.75H36.4286C36.9969 27.75 37.5419 27.9449 37.9438 28.2919C38.3457 28.6388 38.5714 29.1093 38.5714 29.6V33.3ZM55.7143 33.3H42.8571V29.6C42.8571 28.128 42.1798 26.7164 40.9743 25.6756C39.7687 24.6347 38.1335 24.05 36.4286 24.05H23.5714C21.8665 24.05 20.2313 24.6347 19.0257 25.6756C17.8201 26.7164 17.1429 28.128 17.1429 29.6V33.3H4.28571V3.7H55.7143V33.3Z" fill="#424242"/>
<path d="M30.004 22.2004C31.6993 22.2004 33.3565 21.7664 34.7661 20.9533C36.1756 20.1401 37.2743 18.9844 37.923 17.6323C38.5718 16.2801 38.7415 14.7922 38.4108 13.3567C38.08 11.9213 37.2637 10.6027 36.065 9.5678C34.8662 8.5329 33.3389 7.82811 31.6762 7.54258C30.0136 7.25705 28.2901 7.4036 26.7239 7.96369C25.1577 8.52377 23.819 9.47225 22.8772 10.6892C21.9353 11.9061 21.4326 13.3368 21.4326 14.8004C21.4326 16.763 22.3357 18.6452 23.9431 20.033C25.5506 21.4208 27.7308 22.2004 30.004 22.2004ZM30.004 11.1004C30.8517 11.1004 31.6803 11.3174 32.3851 11.724C33.0898 12.1305 33.6392 12.7084 33.9635 13.3845C34.2879 14.0606 34.3728 14.8045 34.2074 15.5222C34.042 16.24 33.6339 16.8992 33.0345 17.4167C32.4351 17.9341 31.6715 18.2865 30.8401 18.4293C30.0088 18.5721 29.1471 18.4988 28.364 18.2187C27.5809 17.9387 26.9115 17.4645 26.4406 16.856C25.9697 16.2475 25.7183 15.5322 25.7183 14.8004C25.7183 13.8191 26.1699 12.878 26.9736 12.1841C27.7773 11.4902 28.8674 11.1004 30.004 11.1004V11.1004Z" fill="#424242"/>
</svg>
