<svg width="34" height="25" viewBox="0 0 34 25" fill="none" xmlns="http://www.w3.org/2000/svg">
<g clip-path="url(#clip0_300_7)">
<path d="M31.5714 0H2.42857C1.7847 0.000760919 1.16741 0.264397 0.71213 0.733074C0.256843 1.20175 0.000739177 1.83719 0 2.5V22.5C0.000739177 23.1628 0.256843 23.7982 0.71213 24.267C1.16741 24.7356 1.7847 24.9993 2.42857 25H31.5714C32.2153 24.9993 32.8326 24.7356 33.2879 24.267C33.7431 23.7982 33.9993 23.1628 34 22.5V2.5C33.9993 1.83719 33.7431 1.20175 33.2879 0.733074C32.8326 0.264397 32.2153 0.000760919 31.5714 0ZM21.8571 22.5H12.1429V20C12.1429 19.6684 12.2708 19.3505 12.4985 19.1161C12.7263 18.8817 13.0351 18.75 13.3571 18.75H20.6429C20.9649 18.75 21.2737 18.8817 21.5015 19.1161C21.7292 19.3505 21.8571 19.6684 21.8571 20V22.5ZM31.5714 22.5H24.2857V20C24.2857 19.0054 23.9019 18.0516 23.2188 17.3484C22.5356 16.6451 21.609 16.25 20.6429 16.25H13.3571C12.391 16.25 11.4644 16.6451 10.7812 17.3484C10.0981 18.0516 9.71431 19.0054 9.71431 20V22.5H2.42857V2.5H31.5714V22.5Z" fill="#424242"/>
<path d="M17 15C17.9889 15 18.9556 14.7068 19.7779 14.1574C20.6001 13.6079 21.241 12.827 21.6194 11.9134C21.9978 10.9998 22.0968 9.99446 21.9039 9.02453C21.711 8.05467 21.2348 7.16372 20.5355 6.46447C19.8363 5.76521 18.9453 5.289 17.9754 5.09607C17.0056 4.90315 16.0002 5.00217 15.0866 5.38061C14.173 5.75904 13.3921 6.3999 12.8427 7.22217C12.2932 8.0444 12 9.01109 12 10C12 11.3261 12.5268 12.5978 13.4645 13.5355C14.4022 14.4732 15.6739 15 17 15ZM17 7.50001C17.4945 7.50001 17.9778 7.64663 18.3889 7.92136C18.8 8.19602 19.1205 8.58649 19.3097 9.04331C19.4989 9.50014 19.5484 10.0028 19.452 10.4877C19.3555 10.9727 19.1174 11.4181 18.7678 11.7678C18.4181 12.1174 17.9727 12.3555 17.4877 12.452C17.0028 12.5484 16.5001 12.4989 16.0433 12.3097C15.5865 12.1205 15.196 11.8001 14.9213 11.3889C14.6466 10.9778 14.5 10.4945 14.5 10C14.5 9.33696 14.7634 8.70109 15.2322 8.23223C15.7011 7.76338 16.337 7.50001 17 7.50001Z" fill="#424242"/>
</g>
<defs>
<clipPath id="clip0_300_7">
<rect width="34" height="25" fill="white"/>
</clipPath>
</defs>
</svg>
