<svg width="36" height="36" viewBox="0 0 36 36" fill="none" xmlns="http://www.w3.org/2000/svg">
<g clip-path="url(#clip0_298_49)">
<path d="M19.1749 30.8573L23.0308 27.5402L20.9235 25.7145L14.9453 30.8573L20.9235 36L23.0457 34.1872L19.1749 30.8573Z" fill="#424242"/>
<path d="M31.6394 30.8573L27.7835 34.1743L29.8908 36L35.869 30.8573L29.8908 25.7145L27.7686 27.5273L31.6394 30.8573Z" fill="#424242"/>
<path d="M11.9564 33.4283H2.98909V2.57182H14.9455V10.2859C14.9477 10.9673 15.2634 11.6202 15.8235 12.102C16.3836 12.5838 17.1424 12.8554 17.9345 12.8573H26.9018V20.5715H29.8909V10.2859C29.8962 10.117 29.8589 9.94905 29.7816 9.79365C29.7041 9.63825 29.5885 9.49912 29.4425 9.38595L18.9807 0.386149C18.8491 0.260573 18.6875 0.161054 18.5068 0.0944633C18.3262 0.0278715 18.131 -0.0042071 17.9345 0.000441922H2.98909C2.19703 0.00240934 1.43808 0.273953 0.878009 0.755753C0.317942 1.23755 0.00228702 1.89045 0 2.57182V33.4283C0.00228702 34.1097 0.317942 34.7626 0.878009 35.2444C1.43808 35.7262 2.19703 35.9977 2.98909 35.9997H11.9564V33.4283ZM17.9345 3.08609L26.304 10.2859H17.9345V3.08609Z" fill="#424242"/>
</g>
<defs>
<clipPath id="clip0_298_49">
<rect width="36" height="36" fill="white"/>
</clipPath>
</defs>
</svg>
