<svg width="47" height="48" viewBox="0 0 47 48" fill="none" xmlns="http://www.w3.org/2000/svg">
<path d="M25.0337 41.1431L30.0677 36.7203L27.3166 34.286L19.5117 41.1431L27.3166 48L30.0872 45.5829L25.0337 41.1431Z" fill="#424242"/>
<path d="M41.3065 41.1431L36.2724 45.5658L39.0236 48L46.8285 41.1431L39.0236 34.286L36.2529 36.7031L41.3065 41.1431Z" fill="#424242"/>
<path d="M15.6097 44.5711H3.90242V3.42909H19.5122V13.7146C19.5151 14.6231 19.9272 15.4936 20.6584 16.136C21.3897 16.7784 22.3804 17.1405 23.4145 17.1431H35.1218V27.4286H39.0242V13.7146C39.0312 13.4893 38.9825 13.2654 38.8815 13.0582C38.7803 12.851 38.6294 12.6655 38.4388 12.5146L24.7804 0.514865C24.6086 0.347431 24.3976 0.214739 24.1617 0.125951C23.9259 0.037162 23.671 -0.00560947 23.4145 0.000589229H3.90242C2.86835 0.00321245 1.87749 0.365271 1.14629 1.00767C0.415091 1.65007 0.00298583 2.5206 0 3.42909V44.5711C0.00298583 45.4796 0.415091 46.3501 1.14629 46.9925C1.87749 47.6349 2.86835 47.997 3.90242 47.9996H15.6097V44.5711ZM23.4145 4.11479L34.3413 13.7146H23.4145V4.11479Z" fill="#424242"/>
</svg>
