<svg width="15" height="18" viewBox="0 0 15 18" fill="none" xmlns="http://www.w3.org/2000/svg">
<path d="M13.75 18H1.25C0.918596 17.9996 0.600875 17.864 0.366537 17.623C0.132199 17.382 0.000380458 17.0552 0 16.7143V1.28571C0.000380458 0.944842 0.132199 0.618043 0.366537 0.377009C0.600875 0.135976 0.918596 0.000391329 1.25 0H13.75C14.0814 0.000391329 14.3991 0.135976 14.6335 0.377009C14.8678 0.618043 14.9996 0.944842 15 1.28571V16.7143C14.9996 17.0552 14.8678 17.382 14.6335 17.623C14.3991 17.864 14.0814 17.9996 13.75 18ZM1.25 1.28571V16.7143H13.75V1.28571H1.25Z" fill="#000"/>
<path d="M4 8L11 8V7L4 7V8Z" fill="#000"/>
<path d="M5 12H10V11H5V12Z" fill="#000"/>
</svg>
