<svg width="60" height="48" viewBox="0 0 60 48" fill="none" xmlns="http://www.w3.org/2000/svg">
<path d="M55.7143 12H42.8571V4C42.8571 2.93913 42.4056 1.92172 41.6019 1.17157C40.7982 0.421427 39.7081 0 38.5714 0H21.4286C20.2919 0 19.2018 0.421427 18.3981 1.17157C17.5944 1.92172 17.1429 2.93913 17.1429 4V12H4.28571C3.14907 12 2.05898 12.4214 1.25526 13.1716C0.451529 13.9217 0 14.9391 0 16V44C0 45.0609 0.451529 46.0783 1.25526 46.8284C2.05898 47.5786 3.14907 48 4.28571 48H55.7143C56.8509 48 57.941 47.5786 58.7447 46.8284C59.5485 46.0783 60 45.0609 60 44V16C60 14.9391 59.5485 13.9217 58.7447 13.1716C57.941 12.4214 56.8509 12 55.7143 12ZM21.4286 4H38.5714V12H21.4286V4ZM4.28571 44V16H55.7143V44H4.28571Z" fill="#424242"/>
</svg>
