<svg width="30" height="30" viewBox="0 0 30 30" fill="none" xmlns="http://www.w3.org/2000/svg">
<path d="M27.8571 7.5H21.4286V2.5C21.4286 1.83696 21.2028 1.20107 20.8009 0.732231C20.3991 0.263392 19.854 0 19.2857 0H10.7143C10.146 0 9.6009 0.263392 9.19905 0.732231C8.7972 1.20107 8.57145 1.83696 8.57145 2.5V7.5H2.14285C1.57453 7.5 1.02949 7.76338 0.62763 8.23225C0.225764 8.70106 0 9.33694 0 10V27.5C0 28.1631 0.225764 28.7989 0.62763 29.2677C1.02949 29.7366 1.57453 30 2.14285 30H27.8571C28.4254 30 28.9705 29.7366 29.3724 29.2677C29.7743 28.7989 30 28.1631 30 27.5V10C30 9.33694 29.7743 8.70106 29.3724 8.23225C28.9705 7.76338 28.4254 7.5 27.8571 7.5ZM10.7143 2.5H19.2857V7.5H10.7143V2.5ZM2.14285 27.5V10H27.8571V27.5H2.14285Z" fill="#424242"/>
</svg>
