<svg width="24" height="24" viewBox="0 0 24 24" fill="none" xmlns="http://www.w3.org/2000/svg">
<g clip-path="url(#clip0_287_22)">
<path d="M18 9.75H16.5C16.4993 9.15346 16.2621 8.58155 15.8403 8.15973C15.4185 7.73792 14.8465 7.50066 14.25 7.5V6C15.2442 6.00113 16.1974 6.39658 16.9004 7.0996C17.6034 7.80262 17.9989 8.75579 18 9.75V9.75Z" fill="#424242"/>
<path d="M21 9.75H19.5C19.4985 8.35809 18.9448 7.02363 17.9606 6.0394C16.9764 5.05517 15.6419 4.50155 14.25 4.5V3C16.0396 3.00199 17.7553 3.71378 19.0208 4.97922C20.2862 6.24466 20.998 7.9604 21 9.75V9.75Z" fill="#424242"/>
<path d="M19.4998 21.75H19.3723C4.63479 20.9025 2.54229 8.4675 2.24979 4.6725C2.22713 4.37789 2.26273 4.08171 2.35454 3.80086C2.44635 3.52 2.59258 3.25998 2.78488 3.03565C2.97718 2.81131 3.21179 2.62705 3.4753 2.49338C3.73882 2.35971 4.02608 2.27925 4.32069 2.2566C4.38009 2.2522 4.43979 2.25 4.49979 2.25H8.45229C8.75271 2.24971 9.04629 2.33963 9.29501 2.50812C9.54373 2.67661 9.73613 2.9159 9.84729 3.195L10.9873 6C11.0971 6.27266 11.1243 6.57156 11.0656 6.85957C11.007 7.14758 10.865 7.412 10.6573 7.62L9.05979 9.2325C9.30831 10.651 9.98708 11.9587 11.004 12.9784C12.021 13.998 13.327 14.6802 14.7448 14.9325L16.3723 13.32C16.5834 13.1146 16.8503 12.9759 17.1397 12.9213C17.4292 12.8666 17.7283 12.8983 17.9998 13.0125L20.8273 14.145C21.1022 14.2597 21.3367 14.4536 21.501 14.702C21.6653 14.9504 21.7519 15.2422 21.7498 15.54V19.5C21.7498 20.0967 21.5127 20.669 21.0908 21.091C20.6688 21.5129 20.0965 21.75 19.4998 21.75ZM4.49979 3.75C4.4013 3.74969 4.30371 3.76877 4.21259 3.80617C4.12148 3.84357 4.03862 3.89855 3.96875 3.96797C3.89889 4.03739 3.84338 4.1199 3.8054 4.21077C3.76741 4.30164 3.7477 4.39911 3.74739 4.4976C3.74739 4.51845 3.74819 4.53925 3.74979 4.56C4.09479 9 6.30729 19.5 19.4548 20.25C19.5531 20.2559 19.6516 20.2424 19.7447 20.2102C19.8378 20.1781 19.9236 20.1279 19.9973 20.0625C20.071 19.9972 20.1311 19.918 20.1742 19.8294C20.2173 19.7409 20.2425 19.6447 20.2484 19.5464C20.2493 19.5309 20.2498 19.5155 20.2498 19.5V15.54L17.4223 14.4075L15.2698 16.545L14.9098 16.5C8.38479 15.6825 7.49979 9.1575 7.49979 9.09L7.45479 8.73L9.58479 6.5775L8.45979 3.75H4.49979Z" fill="#424242"/>
</g>
<defs>
<clipPath id="clip0_287_22">
<rect width="24" height="24" fill="white"/>
</clipPath>
</defs>
</svg>
