<svg width="24" height="24" viewBox="0 0 24 24" fill="none" xmlns="http://www.w3.org/2000/svg">
<path d="M10.5 16.0605L6.75 12.3097L7.80975 11.25L10.5 13.9395L16.1887 8.25L17.25 9.31125L10.5 16.0605Z" fill="#424242"/>
<path d="M12 1.5C9.9233 1.5 7.89325 2.11582 6.1665 3.26957C4.4398 4.42333 3.09399 6.0632 2.29927 7.9818C1.50455 9.90045 1.29661 12.0117 1.70176 14.0485C2.1069 16.0853 3.10693 17.9562 4.57538 19.4246C6.04385 20.8931 7.91475 21.8931 9.95155 22.2983C11.9883 22.7034 14.0995 22.4955 16.0182 21.7008C17.9368 20.906 19.5767 19.5602 20.7304 17.8335C21.8842 16.1067 22.5 14.0767 22.5 12C22.5 9.21525 21.3938 6.5445 19.4246 4.57538C17.4555 2.60624 14.7848 1.5 12 1.5ZM12 21C10.2199 21 8.4799 20.4721 6.99985 19.4832C5.51985 18.4943 4.36628 17.0887 3.68509 15.4441C3.0039 13.7996 2.82567 11.99 3.17293 10.2442C3.5202 8.49835 4.37737 6.8947 5.63605 5.63605C6.8947 4.37737 8.49835 3.5202 10.2442 3.17293C11.99 2.82566 13.7996 3.0039 15.4441 3.68509C17.0887 4.36628 18.4943 5.51985 19.4832 6.99985C20.4721 8.4799 21 10.2199 21 12C21 14.387 20.0518 16.6762 18.364 18.364C16.6762 20.0518 14.3869 21 12 21Z" fill="#424242"/>
</svg>
